<svg width="32" height="32" viewBox="0 0 32 32" fill="none" xmlns="http://www.w3.org/2000/svg">
<path d="M16.0002 32.0004C24.8369 32.0004 32.0004 24.8369 32.0004 16.0002C32.0004 7.16354 24.8369 0 16.0002 0C7.16354 0 0 7.16354 0 16.0002C0 24.8369 7.16354 32.0004 16.0002 32.0004Z" fill="#6C43C6"/>
<path fill-rule="evenodd" clip-rule="evenodd" d="M15.0344 21.7006V6.15052C15.0344 5.92154 14.8863 5.72805 14.6651 5.66864C14.444 5.60923 14.2187 5.70205 14.1036 5.89967L9.58354 13.6745C9.49071 13.8338 9.49071 14.0169 9.58354 14.1762L14.1036 21.951C14.2187 22.1491 14.444 22.2415 14.6651 22.1821C14.8863 22.1227 15.0344 21.9288 15.0344 21.7002V21.7006Z" fill="#FEFEFE"/>
<path fill-rule="evenodd" clip-rule="evenodd" d="M15.0344 23.5909V25.8493C15.0344 26.0783 15.1825 26.2718 15.4036 26.3312C15.6248 26.3906 15.85 26.2978 15.9651 26.1002L16.6215 24.971C16.7144 24.8117 16.7144 24.6286 16.6215 24.4693L15.9651 23.3401C15.85 23.1425 15.6248 23.0497 15.4036 23.1091C15.1825 23.1685 15.0344 23.3624 15.0344 23.5909Z" fill="#FEFEFE"/>
<path fill-rule="evenodd" clip-rule="evenodd" d="M18.3671 10.9495L15.1804 16.4305C15.0876 16.5898 15.0876 16.7729 15.1804 16.9322L18.3671 22.4131C18.4591 22.5712 18.6159 22.6615 18.7987 22.6615C18.9814 22.6615 19.1382 22.5712 19.2302 22.4131L22.4169 16.9322C22.5097 16.7729 22.5097 16.5898 22.4169 16.4305L19.2302 10.9495C19.1382 10.7915 18.9814 10.7012 18.7987 10.7012C18.6159 10.7012 18.4591 10.7915 18.3671 10.9495Z" fill="#FEFEFE"/>
</svg>
