<svg width="24" height="24" viewBox="0 0 24 24" fill="none" xmlns="http://www.w3.org/2000/svg">
<circle cx="12" cy="12" r="12" fill="#6C43C6"/>
<path d="M17.6364 18.0909V16.6364C17.6364 15.8648 17.3299 15.1249 16.7843 14.5793C16.2388 14.0338 15.4988 13.7273 14.7273 13.7273H8.90909C8.13755 13.7273 7.39761 14.0338 6.85205 14.5793C6.30649 15.1249 6 15.8648 6 16.6364V18.0909" stroke="white" stroke-width="2" stroke-linecap="round" stroke-linejoin="round"/>
<path d="M11.8183 10.8182C13.4249 10.8182 14.7274 9.51574 14.7274 7.90909C14.7274 6.30244 13.4249 5 11.8183 5C10.2116 5 8.90918 6.30244 8.90918 7.90909C8.90918 9.51574 10.2116 10.8182 11.8183 10.8182Z" stroke="white" stroke-width="2" stroke-linecap="round" stroke-linejoin="round"/>
</svg>
