<svg width="32" height="32" viewBox="0 0 32 32" fill="none" xmlns="http://www.w3.org/2000/svg">
<path d="M13.8584 7.42883H7.42969V13.8575H13.8584V7.42883Z" stroke="#6C43C6" stroke-width="2" stroke-linecap="round" stroke-linejoin="round"/>
<path d="M24.5719 20.2861H20.2861V24.5719H24.5719V20.2861Z" stroke="#6C43C6" stroke-width="2" stroke-linecap="round" stroke-linejoin="round"/>
<path d="M7.42969 18.1429V24.5717" stroke="#6C43C6" stroke-width="2" stroke-linecap="round" stroke-linejoin="round"/>
<path d="M11.7139 18.1433V24.572H15.9997V18.1433V16.0004H18.1426H24.5713" stroke="#6C43C6" stroke-width="2" stroke-linecap="round" stroke-linejoin="round"/>
<path d="M24.5723 11.7146H18.1436V7.42883H24.5723" stroke="#6C43C6" stroke-width="2" stroke-linecap="round" stroke-linejoin="round"/>
<path d="M7.42871 1H3.1429C2.57457 1 2.02951 1.22577 1.62764 1.62764C1.22577 2.02951 1 2.57457 1 3.1429V7.42871" stroke="#6C43C6" stroke-width="2" stroke-linecap="round" stroke-linejoin="round"/>
<path d="M24.5713 1H28.8571C29.4254 1 29.9705 1.22577 30.3724 1.62764C30.7742 2.02951 31 2.57457 31 3.1429V7.42871" stroke="#6C43C6" stroke-width="2" stroke-linecap="round" stroke-linejoin="round"/>
<path d="M31 24.5718V28.8576C31 29.4259 30.7742 29.971 30.3724 30.3728C29.9705 30.7747 29.4254 31.0005 28.8571 31.0005H24.5713" stroke="#6C43C6" stroke-width="2" stroke-linecap="round" stroke-linejoin="round"/>
<path d="M7.42871 31.0005H3.1429C2.57457 31.0005 2.02951 30.7747 1.62764 30.3728C1.22577 29.971 1 29.4259 1 28.8576V24.5718" stroke="#6C43C6" stroke-width="2" stroke-linecap="round" stroke-linejoin="round"/>
</svg>
