<?xml version="1.0" encoding="UTF-8"?>
<!DOCTYPE svg PUBLIC "-//W3C//DTD SVG 1.1//EN" "http://www.w3.org/Graphics/SVG/1.1/DTD/svg11.dtd">
<!-- Creator: CorelDRAW 2021 (64-Bit) -->
<svg xmlns="http://www.w3.org/2000/svg" xml:space="preserve" width="30.4848mm" height="29.2775mm" version="1.1" style="shape-rendering:geometricPrecision; text-rendering:geometricPrecision; image-rendering:optimizeQuality; fill-rule:evenodd; clip-rule:evenodd"
viewBox="0 0 220.5 211.76"
 xmlns:xlink="http://www.w3.org/1999/xlink"
 xmlns:xodm="http://www.corel.com/coreldraw/odm/2003">
 <defs>
  <style type="text/css">
   <![CDATA[
    .fil0 {fill:white}
   ]]>
  </style>
 </defs>
 <g id="Слой_x0020_1">
  <metadata id="CorelCorpID_0Corel-Layer"/>
  <g id="_2626493569952">
   <path class="fil0" d="M10.23 10.12l200.07 0.12 -0.19 89.55 -199.89 -0.05 0.01 -89.63zm-6.6 -9.56c-4.71,1.58 -3.4,10.19 -3.36,16.94l-0.02 61.87c-0.05,30.29 -2.42,30.38 10.76,30.39 13.73,0.01 27.52,0.05 41.25,-0.05 27.47,-0.21 55.02,0.3 82.49,0.04 9.22,-0.09 79.54,0.47 82.04,-0.33 5.08,-1.61 3.44,-11.02 3.47,-16.74l-0.02 -82.49c0.06,-10.04 -0.93,-10.02 -10.73,-10.02l-164.99 -0.01c-5.93,0 -37.95,-0.6 -40.89,0.38z"/>
   <path class="fil0" d="M220.19 129.64c0.45,-4.63 0.97,-11.66 -2.92,-13.34 -2.45,-1.05 -4.73,-0.03 -5.89,1.48 -1.36,1.78 -1.07,4.19 -1.06,6.88l-32.1 -0.14c0,-4.53 -0.23,-8.86 -5.23,-8.61 -4.57,0.22 -4.73,4.4 -4.73,8.71 -5.1,0.06 -28.92,0.66 -32.06,-0.23 0.01,-2.72 0.44,-8.78 -5.29,-8.47 -4.59,0.25 -4.63,4.24 -4.64,8.74l-32.01 -0.06c-0.09,-4.21 -0.04,-8.77 -5.07,-8.72 -4.64,0.05 -4.91,4.01 -4.95,8.45 -2.62,0.81 -27.38,0.4 -32.02,0.31 -0.08,-4.42 -0.07,-8.81 -5.13,-8.74 -4.64,0.07 -4.87,4.37 -4.84,8.74l-32.03 -0.13c-0.01,-2.76 0.29,-5.07 -1.34,-6.96 -2.19,-2.54 -10.67,-4.89 -8.57,12.46 0.67,5.55 6.19,4.58 11.53,4.58 26.74,0 54.41,-0.4 80.91,0.07 0.52,13.42 0.09,27.84 0.08,41.37 -0,6.85 0.08,13.79 -0.02,20.62 -0.08,5.95 -1.62,15.07 4.96,15.09 6.77,0.02 5.04,-9.96 4.99,-15.52 -0.06,-6.85 -0.01,-13.76 -0.01,-20.62 0,-13.55 -0.26,-27.43 0.06,-40.95l14.86 0.01c0.47,20.06 -0.18,41.58 0,62 0.05,5.35 -1.83,15.11 5.01,15.08 6.78,-0.03 4.93,-9.62 4.97,-15.51l-0.02 -61.62 81.41 0.04c5.44,0.01 10.56,0.71 11.11,-5.03z"/>
  </g>
 </g>
</svg>
