<?xml version="1.0" encoding="UTF-8"?>
<!DOCTYPE svg PUBLIC "-//W3C//DTD SVG 1.1//EN" "http://www.w3.org/Graphics/SVG/1.1/DTD/svg11.dtd">
<!-- Creator: CorelDRAW 2021 (64-Bit) -->
<svg xmlns="http://www.w3.org/2000/svg" xml:space="preserve" width="30.4848mm" height="29.2775mm" version="1.1" style="shape-rendering:geometricPrecision; text-rendering:geometricPrecision; image-rendering:optimizeQuality; fill-rule:evenodd; clip-rule:evenodd"
viewBox="0 0 148.9 143"
 xmlns:xlink="http://www.w3.org/1999/xlink"
 xmlns:xodm="http://www.corel.com/coreldraw/odm/2003">
 <defs>
  <style type="text/css">
   <![CDATA[
    .fil0 {fill:white}
   ]]>
  </style>
 </defs>
 <g id="Слой_x0020_1">
  <metadata id="CorelCorpID_0Corel-Layer"/>
  <g id="_2624260903776">
   <g>
    <path class="fil0" d="M6.91 6.84l135.1 0.08 -0.13 60.47 -134.98 -0.03 0 -60.52zm-4.46 -6.46c-3.18,1.07 -2.29,6.88 -2.27,11.44l-0.01 41.78c-0.04,20.45 -1.64,20.52 7.26,20.52 9.27,0.01 18.58,0.04 27.85,-0.04 18.55,-0.14 37.16,0.2 55.71,0.03 6.23,-0.06 53.71,0.31 55.4,-0.22 3.43,-1.09 2.32,-7.44 2.34,-11.3l-0.01 -55.71c0.04,-6.78 -0.63,-6.77 -7.24,-6.77l-111.41 -0c-4,0 -25.63,-0.41 -27.61,0.26z"/>
    <path class="fil0" d="M148.69 87.54c0.3,-3.13 0.66,-7.88 -1.97,-9.01 -1.66,-0.71 -3.2,-0.02 -3.98,1 -0.92,1.2 -0.72,2.83 -0.71,4.65l-21.67 -0.1c0,-3.06 -0.16,-5.98 -3.53,-5.82 -3.09,0.15 -3.2,2.97 -3.2,5.88 -3.44,0.04 -19.53,0.44 -21.65,-0.15 0,-1.84 0.3,-5.93 -3.57,-5.72 -3.1,0.17 -3.13,2.86 -3.13,5.91l-21.62 -0.04c-0.06,-2.84 -0.03,-5.93 -3.42,-5.89 -3.13,0.03 -3.32,2.71 -3.34,5.71 -1.77,0.55 -18.49,0.27 -21.62,0.21 -0.06,-2.99 -0.05,-5.95 -3.46,-5.9 -3.13,0.04 -3.29,2.95 -3.27,5.9l-21.63 -0.09c-0.01,-1.86 0.2,-3.42 -0.9,-4.7 -1.48,-1.72 -7.21,-3.3 -5.79,8.42 0.45,3.75 4.18,3.09 7.79,3.09 18.06,0 36.74,-0.27 54.64,0.05 0.35,9.06 0.06,18.8 0.06,27.94 -0,4.62 0.06,9.31 -0.01,13.93 -0.06,4.02 -1.09,10.17 3.35,10.19 4.57,0.02 3.41,-6.73 3.37,-10.48 -0.04,-4.63 -0.01,-9.29 -0.01,-13.93 0,-9.15 -0.18,-18.52 0.04,-27.65l10.03 0.01c0.32,13.54 -0.12,28.08 0,41.86 0.03,3.62 -1.23,10.21 3.39,10.18 4.58,-0.02 3.33,-6.5 3.36,-10.47l-0.02 -41.61 54.98 0.03c3.67,0 7.13,0.48 7.5,-3.4z"/>
   </g>
   <path class="fil0" d="M73.36 10.49l2.27 -0 0.03 0c1.79,0.08 3.56,0.35 5.29,0.78 1.25,0.31 2.39,0.71 3.58,1.19 0.74,0.3 1.42,0.64 2.14,1l0.04 0.02 1.97 1.15 0.04 0.02c0.31,0.21 0.63,0.41 0.93,0.64 0.89,0.66 1.85,1.36 2.65,2.13 1.26,1.22 2.3,2.37 3.36,3.76 0.1,0.14 0.2,0.28 0.3,0.42 0.66,0.88 1.35,2.04 1.85,3.03 0.53,1.07 1.06,2.16 1.44,3.29 0.27,0.8 0.52,1.59 0.73,2.4 0.22,0.88 0.39,1.75 0.52,2.64 0.14,0.97 0.22,1.94 0.25,2.94l0 1.68c-0.03,1.04 -0.12,2.05 -0.26,3.06 -0.3,2.16 -0.89,4.22 -1.72,6.23 -0.94,2.29 -2.56,5.07 -4.2,6.91l-0.72 0.83 -0.03 0.03c-0.76,0.79 -1.58,1.59 -2.42,2.3l-0.06 0.06 -4.64 3.1 -0.08 0.04c-0.33,0.16 -0.65,0.33 -0.98,0.49 -1.37,0.68 -3.23,1.31 -4.71,1.68 -1.82,0.45 -3.69,0.71 -5.56,0.77l-1.82 0c-1.89,-0.06 -3.77,-0.32 -5.6,-0.78 -1.25,-0.32 -2.38,-0.71 -3.57,-1.19 -3.2,-1.29 -6.09,-3.28 -8.53,-5.72 -0.54,-0.54 -1.06,-1.08 -1.55,-1.67 -0.25,-0.3 -0.49,-0.6 -0.73,-0.91 -0.92,-1.23 -1.78,-2.5 -2.47,-3.87 -0.16,-0.33 -0.33,-0.65 -0.49,-0.98 -0.68,-1.37 -1.31,-3.23 -1.68,-4.71 -0.22,-0.88 -0.39,-1.75 -0.52,-2.64 -0.15,-1.08 -0.24,-2.09 -0.25,-3.18l0 -1.5c0,-1.81 0.35,-3.89 0.78,-5.65 0.37,-1.5 0.99,-3.34 1.69,-4.72l1.04 -1.98c0.64,-1.17 2.16,-3.35 3.09,-4.27 0.11,-0.11 0.21,-0.26 0.33,-0.38 1.79,-1.86 3.91,-3.7 6.18,-4.94 1.4,-0.76 2.8,-1.5 4.32,-2.01 2.52,-0.84 5.12,-1.38 7.78,-1.5zm14.42 41.39c0.12,-0.11 0.24,-0.2 0.36,-0.31 0.56,-0.49 1.24,-1.25 1.73,-1.83l0.82 -1.06c0.08,-0.11 0.16,-0.22 0.23,-0.33l0.53 -0.79c1.08,-1.63 2.12,-4.08 2.56,-5.98 0.75,-3.2 0.77,-6.49 -0.02,-9.69 -0.31,-1.23 -0.74,-2.45 -1.27,-3.59 -0.99,-2.14 -2.35,-4.05 -4.02,-5.72l-1.33 -1.23c-2.17,-1.89 -5.26,-3.41 -8.06,-4.11 -2.01,-0.5 -3.41,-0.58 -5.47,-0.58 -3.88,0 -8.66,1.67 -11.65,4.16l-1.44 1.2c-0.97,0.81 -2.33,2.51 -3.04,3.57 -3.16,4.69 -4.18,10.61 -2.8,16.1 0.31,1.23 0.74,2.44 1.27,3.59 0.13,0.28 0.28,0.56 0.42,0.84 0.55,1.11 1.61,2.7 2.43,3.62 0.5,0.56 1.16,1.37 1.73,1.83 0.72,0.57 1.34,1.17 2.09,1.68l1.58 1c0.93,0.56 2.21,1.16 3.25,1.5 2.8,0.92 4.42,1.16 7.38,1.16 1.54,0 3.74,-0.35 5.2,-0.84 0.18,-0.06 0.36,-0.1 0.53,-0.16 2,-0.64 4.33,-1.89 5.96,-3.19l1.03 -0.85zm-21.08 -22.18c0,-0.88 0.41,-1.77 1.1,-2.32 2.17,-1.73 4.02,-0.44 5.96,0.71l9.63 5.68c1.68,1.02 2.12,3.01 1.41,4.76 -0.35,0.86 -0.9,1.3 -1.66,1.75l-4.81 2.84c-1.17,0.69 -2.33,1.37 -3.5,2.07 -0.58,0.35 -1.17,0.68 -1.76,1.03 -0.31,0.19 -0.62,0.37 -0.93,0.55 -1.29,0.72 -3.09,0.7 -4.32,-0.13 -0.78,-0.53 -1.13,-1.38 -1.13,-2.3l0 -14.65zm6.17 9.47c0.69,-0.43 1.38,-0.86 2.04,-1.27 0.3,-0.18 0.88,-0.56 1.52,-0.95 -0.51,-0.31 -0.96,-0.59 -1.19,-0.73 -0.79,-0.48 -1.58,-0.96 -2.37,-1.44l0 4.39z"/>
  </g>
 </g>
</svg>
