<?xml version="1.0" encoding="UTF-8"?>
<!DOCTYPE svg PUBLIC "-//W3C//DTD SVG 1.1//EN" "http://www.w3.org/Graphics/SVG/1.1/DTD/svg11.dtd">
<!-- Creator: CorelDRAW 2021 (64-Bit) -->
<svg xmlns="http://www.w3.org/2000/svg" xml:space="preserve" width="146.332mm" height="146.332mm" version="1.1" style="shape-rendering:geometricPrecision; text-rendering:geometricPrecision; image-rendering:optimizeQuality; fill-rule:evenodd; clip-rule:evenodd"
viewBox="0 0 775.63 775.63"
 xmlns:xlink="http://www.w3.org/1999/xlink"
 xmlns:xodm="http://www.corel.com/coreldraw/odm/2003">
 <defs>
  <style type="text/css">
   <![CDATA[
    .fil1 {fill:#FEFEFE}
    .fil0 {fill:#6C43C6}
   ]]>
  </style>
 </defs>
 <g id="Слой_x0020_1">
  <metadata id="CorelCorpID_0Corel-Layer"/>
  <circle class="fil0" cx="387.82" cy="387.82" r="387.82"/>
  <g id="_2250544969632">
   <path class="fil1" d="M364.41 525.99l0 -376.91c0,-5.55 -3.59,-10.24 -8.95,-11.68 -5.36,-1.44 -10.82,0.81 -13.61,5.6l-109.56 188.45c-2.25,3.86 -2.25,8.3 0,12.16l109.56 188.45c2.79,4.8 8.25,7.04 13.61,5.6 5.36,-1.44 8.95,-6.14 8.95,-11.68z"/>
   <path class="fil1" d="M364.41 571.81l0 54.74c0,5.55 3.59,10.24 8.95,11.68 5.36,1.44 10.82,-0.81 13.61,-5.6l15.91 -27.37c2.25,-3.86 2.25,-8.3 0,-12.16l-15.91 -27.37c-2.79,-4.79 -8.25,-7.04 -13.61,-5.6 -5.36,1.44 -8.95,6.14 -8.95,11.68z"/>
   <path class="fil1" d="M445.19 265.4l-77.24 132.85c-2.25,3.86 -2.25,8.3 0,12.16l77.24 132.85c2.23,3.83 6.03,6.02 10.46,6.02 4.43,0 8.23,-2.19 10.46,-6.02l77.24 -132.85c2.25,-3.86 2.25,-8.3 0,-12.16l-77.24 -132.85c-2.23,-3.83 -6.03,-6.02 -10.46,-6.02 -4.43,0 -8.23,2.19 -10.46,6.02z"/>
  </g>
 </g>
</svg>
